<svg width="595" height="676" viewBox="0 0 595 676" fill="none" xmlns="http://www.w3.org/2000/svg">
<path fill-rule="evenodd" clip-rule="evenodd" d="M592.863 264.71C593.957 306.17 577.718 345.211 576.363 386.663C574.819 433.909 607.277 485.39 584.3 526.701C561.737 567.27 501.69 566.175 462.597 591.209C423.891 615.996 398.569 686.183 354.243 674.029C297.441 658.454 306.154 553.351 250.83 533.145C202.753 515.586 151.46 610.578 107.722 583.992C67.5425 559.569 125.339 486.89 104.995 444.499C85.4543 403.782 5.92203 405.426 0.507065 360.588C-4.7147 317.35 54.28 293.862 82.8313 260.974C103.81 236.809 130.169 218.323 147.414 191.366C169.686 156.553 171.014 110.686 198.642 79.9498C230.735 44.2462 270.7 -7.5905 317.771 1.84631C368.589 12.0344 366.126 100.07 412.676 122.86C460.137 146.094 527.937 92.3741 569.457 125.061C606.953 154.579 591.604 217.006 592.863 264.71Z" fill="url(#paint0_linear_144_17)" fill-opacity="0.84"/>
<defs>
<linearGradient id="paint0_linear_144_17" x1="230.173" y1="19.2523" x2="405.503" y2="665.569" gradientUnits="userSpaceOnUse">
<stop stop-color="#FFF1EB"/>
<stop offset="1" stop-color="#ACE0F9"/>
</linearGradient>
</defs>
</svg>
