<svg width="523" height="193" viewBox="0 0 523 193" fill="none" xmlns="http://www.w3.org/2000/svg">
<path d="M522 1C522 1 454.338 7.75238 454.338 26.6591M386.675 1C386.675 1 454.338 7.75238 454.338 26.6591M454.338 26.6591C454.338 151.578 454.338 151.578 386.675 151.578C330.516 151.578 263.53 139.829 263.53 168.459M263.53 168.459C263.53 197.089 263.53 192.768 263.53 192.768M263.53 168.459C263.53 139.424 186.439 151.578 136.325 151.578C68.6623 151.578 68.6623 151.578 68.6623 26.6591M1 1C1 1 68.6623 7.75238 68.6623 26.6591M136.325 1C136.325 1 68.6623 7.75238 68.6623 26.6591" stroke="#416E8E"/>
</svg>
