<svg width="264" height="98" viewBox="0 0 264 98" fill="none" xmlns="http://www.w3.org/2000/svg">
<path d="M3.10029 57.3279H3.60029H3.10029ZM3.10025 98L5.91795 92.9608L0.144995 93.0402L3.10025 98ZM263.027 8.02223C195.386 4.29618 130.348 -2.14856 82.2488 1.66799C58.1986 3.57632 38.3028 8.0536 24.4082 16.7725C10.4728 25.517 2.60027 38.5138 2.60029 57.3279H3.60029C3.60027 38.8593 11.2946 26.1819 24.9397 17.6196C38.6255 9.03164 58.3237 4.56954 82.3279 2.66486C130.338 -1.14461 195.249 5.29017 262.972 9.02071L263.027 8.02223ZM2.60029 57.3279C2.60032 87.9423 2.42456 84.2394 2.53838 93.5061L3.53831 93.4939C3.42451 84.2295 3.60032 87.9759 3.60029 57.3279H2.60029Z" fill="#416E8E"/>
</svg>
