<svg width="302" height="306" viewBox="0 0 302 306" fill="none" xmlns="http://www.w3.org/2000/svg">
<path fill-rule="evenodd" clip-rule="evenodd" d="M299.722 27.9371C311.625 64.3413 261.344 91.6898 244.233 125.987C235.799 142.892 227.202 159.277 224.847 178.015C219.576 219.95 257.722 279.425 222.084 302.199C189.356 323.115 163.601 249.034 125.52 241.49C89.9446 234.443 51.2219 282.293 20.9457 262.354C-7.6545 243.518 0.754506 196.652 6.04821 162.809C10.2434 135.988 39.2559 120.379 47.2136 94.4205C55.2264 68.2822 31.2714 32.4999 51.6032 14.2056C71.683 -3.86193 103.915 21.6114 130.814 19.198C156.148 16.9249 177.837 -0.713356 203.236 0.600745C237.317 2.3641 289.123 -4.47849 299.722 27.9371Z" fill="url(#paint0_linear_144_12)" fill-opacity="0.5"/>
<defs>
<linearGradient id="paint0_linear_144_12" x1="70.034" y1="2.28467" x2="246.776" y2="286.867" gradientUnits="userSpaceOnUse">
<stop stop-color="#ACCBEE"/>
<stop offset="1" stop-color="#E7F0FD"/>
</linearGradient>
</defs>
</svg>
