<svg width="654" height="157" viewBox="0 0 654 157" fill="none" xmlns="http://www.w3.org/2000/svg">
<path d="M327 39.5H326.5V40H327V39.5ZM651 156L653.967 151.047L648.194 150.954L651 156ZM326.5 0.5V39.5H327.5V0.5H326.5ZM327 40C369.52 40 426.083 32.8705 478.284 29.3113C504.402 27.5305 529.439 26.6417 551.126 27.9756C572.825 29.3103 591.107 32.8678 603.756 39.9365L604.244 39.0635C591.393 31.8822 572.925 28.3147 551.187 26.9775C529.436 25.6396 504.348 26.532 478.216 28.3137C425.917 31.8795 369.48 39 327 39V40ZM603.756 39.9365C625.371 52.0156 637.07 75.2589 643.368 97.867C649.663 120.462 650.536 142.324 650.572 151.501L651.572 151.497C651.536 142.278 650.66 120.316 644.332 97.5986C638.006 74.8941 626.205 51.3361 604.244 39.0635L603.756 39.9365Z" fill="#416E8E"/>
<path d="M327 39.5H327.5V40H327V39.5ZM3 156L0.0333252 151.047L5.80609 150.954L3 156ZM327.5 0.5V39.5H326.5V0.5H327.5ZM327 40C284.48 40 227.917 32.8705 175.716 29.3113C149.598 27.5305 124.561 26.6417 102.874 27.9756C81.1754 29.3103 62.8931 32.8678 50.2439 39.9365L49.7561 39.0635C62.6069 31.8822 81.0746 28.3147 102.813 26.9775C124.564 25.6396 149.652 26.532 175.784 28.3137C228.083 31.8795 284.52 39 327 39V40ZM50.2439 39.9365C28.6287 52.0156 16.9301 75.2589 10.6317 97.867C4.33682 120.462 3.46417 142.324 3.4277 151.501L2.4277 151.497C2.46436 142.278 3.33954 120.316 9.6684 97.5986C15.9937 74.8941 27.7947 51.3361 49.7561 39.0635L50.2439 39.9365Z" fill="#416E8E"/>
<path d="M327 156L329.887 151H324.113L327 156ZM326.5 1V151.5H327.5V1H326.5Z" fill="#416E8E"/>
</svg>
